<!DOCTYPE svg PUBLIC "-//W3C//DTD SVG 1.1//EN" "http://www.w3.org/Graphics/SVG/1.1/DTD/svg11.dtd">
<!-- Uploaded to: SVG Repo, www.svgrepo.com, Transformed by: SVG Repo Mixer Tools -->
<svg fill="#055f5b" version="1.1" id="Layer_1" xmlns="http://www.w3.org/2000/svg" xmlns:xlink="http://www.w3.org/1999/xlink" viewBox="0 0 512 512" xml:space="preserve" width="800px" height="800px">
<g id="SVGRepo_bgCarrier" stroke-width="0"/>
<g id="SVGRepo_tracerCarrier" stroke-linecap="round" stroke-linejoin="round"/>
<g id="SVGRepo_iconCarrier"> <g> <g> <rect x="233.739" y="272.696" width="144.696" height="66.783"/> </g> </g> <g> <g> <rect x="233.739" y="38.957" width="144.696" height="100.174"/> </g> </g> <g> <g> <rect x="133.565" y="372.87" width="144.696" height="100.174"/> </g> </g> <g> <g> <rect x="133.565" y="172.522" width="144.696" height="66.783"/> </g> </g> <g> <g> <rect y="272.696" width="200.348" height="66.783"/> </g> </g> <g> <g> <rect y="172.522" width="100.174" height="66.783"/> </g> </g> <g> <g> <path d="M495.304,38.957h-83.478V139.13H512V55.652C512,46.43,504.521,38.957,495.304,38.957z"/> </g> </g> <g> <g> <path d="M311.652,372.87v100.174h183.652c9.217,0,16.696-7.473,16.696-16.696V372.87H311.652z"/> </g> </g> <g> <g> <rect x="311.652" y="172.522" width="200.348" height="66.783"/> </g> </g> <g> <g> <path d="M0,372.87v83.478c0,9.223,7.473,16.696,16.696,16.696h83.478V372.87H0z"/> </g> </g> <g> <g> <path d="M16.696,38.957C7.473,38.957,0,46.43,0,55.652v83.478h200.348V38.957H16.696z"/> </g> </g> <g> <g> <rect x="411.826" y="272.696" width="100.174" height="66.783"/> </g> </g> </g>
</svg>