<!DOCTYPE svg PUBLIC "-//W3C//DTD SVG 1.1//EN" "http://www.w3.org/Graphics/SVG/1.1/DTD/svg11.dtd">
<!-- Uploaded to: SVG Repo, www.svgrepo.com, Transformed by: SVG Repo Mixer Tools -->
<svg fill="#055f5b" height="800px" width="800px" version="1.1" id="Layer_1" xmlns="http://www.w3.org/2000/svg" xmlns:xlink="http://www.w3.org/1999/xlink" viewBox="0 0 512 512" xml:space="preserve">
<g id="SVGRepo_bgCarrier" stroke-width="0"/>
<g id="SVGRepo_tracerCarrier" stroke-linecap="round" stroke-linejoin="round"/>
<g id="SVGRepo_iconCarrier"> <g> <g> <path d="M439.652,200.348H256v-66.783h16.696c9.217,0,16.696-7.479,16.696-16.696s-7.479-16.696-16.696-16.696H256v-3.076 c19.391-6.914,33.391-25.273,33.391-47.01C289.391,22.468,266.923,0,239.304,0H72.348C44.729,0,22.261,22.468,22.261,50.087 c0,21.737,14,40.096,33.391,47.01v159.74c0,29.891,15.75,56.804,40.141,68.576c16.686,8.033,26.642,21.968,26.642,37.25v132.641 c0,9.217,7.479,16.696,16.696,16.696h200.348c9.295,0,16.764-7.585,16.696-16.805l-0.424-65.619 c0.228-9.25,7.88-16.696,17.12-16.696c0.066,0,0.141,0,0.217,0c1.332,0.017,16.218,0.207,17.533,0.207 c36.424,0,66.294-29.402,66.771-66.098l0.168-49.921c18.771-7.236,32.18-25.341,32.18-46.633 C489.739,222.816,467.271,200.348,439.652,200.348z M239.304,66.783H72.348c-9.206,0-16.696-7.49-16.696-16.696 s7.49-16.696,16.696-16.696h166.957c9.206,0,16.696,7.49,16.696,16.696S248.51,66.783,239.304,66.783z M439.652,267.13H272.696 c-9.206,0-16.696-7.49-16.696-16.696v-16.696h183.652c9.206,0,16.696,7.49,16.696,16.696 C456.348,259.641,448.858,267.13,439.652,267.13z"/> </g> </g> </g>
</svg>